<svg width="368" height="190" viewBox="0 0 368 190" fill="none" xmlns="http://www.w3.org/2000/svg">
<path d="M23.7663 157.243V157.922H5.53455L20.2048 169.963C22.6639 171.998 24.1055 175.051 24.1055 178.274C24.1055 184.379 18.7632 189.213 12.7425 189.213C9.60489 189.213 6.63693 187.941 4.43216 185.736L4.94096 185.312V185.397C6.63693 187.093 8.9265 187.856 11.1313 187.856C16.304 187.856 20.3744 183.361 20.3744 178.274C20.3744 175.221 19.0176 172.422 16.728 170.472L0.616211 157.243H23.7663Z" fill="white"/>
<path d="M33.6394 160.466C36.9466 157.328 41.1017 155.717 45.3417 155.717C49.4968 155.717 53.652 157.243 56.8743 160.296L57.7223 161.144C60.6055 164.366 62.0471 168.352 62.0471 172.422C62.0471 181.665 54.5848 189.128 45.3417 189.128C41.1865 189.128 37.0314 187.601 33.809 184.549L32.961 183.701C26.9403 177.086 27.1947 166.741 33.6394 160.466ZM54.7543 181.411C57.6375 178.443 59.5031 174.797 59.9271 171.066C60.3511 167.419 59.4183 164.027 57.2135 161.568L56.4503 160.805C54.2456 158.855 51.4472 157.837 48.3944 157.837C44.3241 157.837 39.9145 159.618 36.353 163.01L54.7543 181.411ZM33.4698 183.277L34.233 184.04C36.4378 186.075 39.2361 187.008 42.2889 187.008C46.3593 187.008 50.7688 185.227 54.3304 181.835L35.929 163.434C33.0458 166.402 31.1803 170.048 30.7563 173.779C30.3323 177.51 31.265 180.817 33.4698 183.277Z" fill="white"/>
<path d="M71.4034 189.213L65.6371 182.683V181.326L71.4034 187.856V157.243H75.1346V189.213H71.4034Z" fill="white"/>
<path d="M78.1436 176.662V175.56C78.4828 168.522 84.3339 163.095 91.3722 163.095C94.849 163.095 98.3257 164.621 100.7 167.25C97.1386 160.127 91.457 154.36 84.2491 150.714L82.8075 150.035L83.1467 149.442L84.5883 150.205C92.0506 153.936 98.2409 160.296 101.718 167.843C102.226 169.03 102.905 170.133 103.329 171.32C105.194 176.238 104.177 181.665 100.446 185.397C97.9018 187.941 94.5098 189.297 91.1178 189.297C84.2491 189.297 78.398 183.531 78.1436 176.662ZM80.094 179.885C80.2636 182.174 81.2812 184.379 83.1467 185.821C85.0971 187.262 87.8955 187.517 90.2699 187.093C93.153 186.499 95.7818 184.803 97.817 182.768C101.039 179.545 103.583 174.118 101.633 169.624C100.276 166.571 96.969 164.875 93.7466 165.13C90.2699 165.384 87.0475 167.165 84.5883 169.624C82.0444 172.168 79.9244 176.069 80.094 179.885Z" fill="white"/>
<path d="M1.33315 135.365H27.7673C32.2539 135.365 36.1855 135.018 39.562 134.325C42.9386 133.631 45.8526 132.683 48.304 131.48C50.7555 130.277 52.7907 128.867 54.4096 127.248C56.0284 125.675 57.3004 123.987 58.2255 122.183C59.1968 120.425 59.8675 118.621 60.2375 116.771C60.6538 114.921 60.862 113.117 60.862 111.359V109.278C60.862 107.474 60.7001 105.578 60.3763 103.589C60.0525 101.646 59.4512 99.7266 58.5724 97.8302C57.6936 95.9338 56.491 94.1299 54.9646 92.4185C53.4382 90.7534 51.4493 89.2732 48.9978 87.9781C46.5464 86.683 43.5861 85.6423 40.1171 84.856C36.648 84.1159 32.5546 83.7459 27.8367 83.7459H1.33315V135.365ZM15.6256 95.2631H27.1429C31.4907 95.2631 34.9135 95.7257 37.4112 96.6507C39.9089 97.6221 41.7822 98.8016 43.0311 100.189C44.3262 101.623 45.1356 103.173 45.4594 104.838C45.8294 106.503 46.0145 108.075 46.0145 109.556V109.972C46.0145 111.406 45.8294 112.932 45.4594 114.551C45.1356 116.216 44.3262 117.743 43.0311 119.13C41.736 120.518 39.8396 121.651 37.3418 122.53C34.8441 123.455 31.4445 123.917 27.1429 123.917H15.6256V95.2631Z" fill="white"/>
<path d="M118.437 135.365V124.126H85.2727V115.73H117.396V104.074H85.2727V95.1244H118.853V83.7459H71.1884V135.365H118.437Z" fill="white"/>
<path d="M158.162 82.9827C153.953 82.9827 150.322 83.3759 147.269 84.1622C144.216 84.9947 141.649 86.0817 139.568 87.4231C137.486 88.8107 135.798 90.4065 134.503 92.2104C133.254 94.0143 132.283 95.8644 131.589 97.7608C130.941 99.7035 130.502 101.646 130.271 103.589C130.039 105.578 129.924 107.428 129.924 109.139V135.365H144.216V109.486C144.216 108.006 144.355 106.41 144.632 104.699C144.956 103.034 145.627 101.484 146.644 100.05C147.708 98.6628 149.212 97.4833 151.154 96.512C153.097 95.5869 155.71 95.1244 158.994 95.1244H159.341C162.625 95.1244 165.239 95.5869 167.181 96.512C169.124 97.4833 170.581 98.6628 171.552 100.05C172.57 101.484 173.217 103.034 173.495 104.699C173.819 106.41 173.981 108.006 173.981 109.486V135.365H188.204V109.139C188.204 107.428 188.065 105.578 187.787 103.589C187.556 101.646 187.07 99.7035 186.33 97.7608C185.637 95.8182 184.642 93.9449 183.347 92.141C182.052 90.3833 180.364 88.8107 178.282 87.4231C176.201 86.0817 173.68 84.9947 170.72 84.1622C167.759 83.3759 164.244 82.9827 160.174 82.9827H158.162Z" fill="white"/>
<path d="M226.348 100.536L211.362 83.7459H194.572L217.329 109.972L194.919 135.365H213.027L227.042 119.338L240.988 135.365H257.431L235.715 110.111L258.402 83.7459H241.127L226.348 100.536Z" fill="white"/>
<path d="M48.3734 53.4573V42.0094H15.5562V32.7817H47.4021V20.987H15.5562V1.83786H1.33315V53.4573H48.3734Z" fill="white"/>
<path d="M73.7592 31.1166H93.6716C95.1054 31.1166 96.308 31.2554 97.2794 31.5329C98.2507 31.8567 99.0139 32.2498 99.5689 32.7124C100.124 33.2212 100.517 33.7993 100.748 34.4469C100.98 35.1407 101.095 35.8576 101.095 36.5977V36.7365C101.095 37.4765 100.98 38.1703 100.748 38.8179C100.517 39.4654 100.124 40.0205 99.5689 40.483C99.0139 40.9918 98.2507 41.385 97.2794 41.6625C96.308 41.94 95.1054 42.0788 93.6716 42.0788H73.7592V31.1166ZM105.189 26.6762C108.704 25.8899 111.456 24.4098 113.445 22.2358C115.434 20.0619 116.429 17.0785 116.429 13.2857V7.94339C116.429 6.00073 116.498 4.65935 116.637 3.91929C116.822 3.17923 117.03 2.60105 117.261 2.18476V1.83786H102.483C102.39 2.02287 102.275 2.36978 102.136 2.87857C102.044 3.43362 101.997 4.28932 101.997 5.44567V9.6779C101.997 13.0082 101.28 15.4596 99.8465 17.0323C98.4588 18.6049 95.9611 19.3912 92.3533 19.3912H73.7592V1.83786H59.4668V53.4573H94.2266C99.1295 53.4573 103.015 52.9947 105.883 52.0696C108.797 51.1908 110.994 50.0576 112.474 48.67C114 47.2824 114.972 45.7791 115.388 44.1602C115.85 42.5413 116.082 41.0381 116.082 39.6505V38.9567C116.082 35.7189 115.064 33.0362 113.029 30.9085C111.04 28.827 108.427 27.4163 105.189 26.6762Z" fill="white"/>
<path d="M174.809 53.4573V42.2176H141.645V33.8225H173.768V22.1665H141.645V13.2163H175.225V1.83786H127.56V53.4573H174.809ZM138.453 67.9579H153.856L160.169 57.6895H145.808L138.453 67.9579Z" fill="white"/>
<path d="M200.935 31.1166H220.847C222.281 31.1166 223.484 31.2554 224.455 31.5329C225.426 31.8567 226.19 32.2498 226.745 32.7124C227.3 33.2212 227.693 33.7993 227.924 34.4469C228.155 35.1407 228.271 35.8576 228.271 36.5977V36.7365C228.271 37.4765 228.155 38.1703 227.924 38.8179C227.693 39.4654 227.3 40.0205 226.745 40.483C226.19 40.9918 225.426 41.385 224.455 41.6625C223.484 41.94 222.281 42.0788 220.847 42.0788H200.935V31.1166ZM232.365 26.6762C235.88 25.8899 238.632 24.4098 240.621 22.2358C242.61 20.0619 243.604 17.0785 243.604 13.2857V7.94339C243.604 6.00073 243.674 4.65935 243.812 3.91929C243.997 3.17923 244.206 2.60105 244.437 2.18476V1.83786H229.659C229.566 2.02287 229.451 2.36978 229.312 2.87857C229.219 3.43362 229.173 4.28932 229.173 5.44567V9.6779C229.173 13.0082 228.456 15.4596 227.022 17.0323C225.635 18.6049 223.137 19.3912 219.529 19.3912H200.935V1.83786H186.643V53.4573H221.402C226.305 53.4573 230.191 52.9947 233.058 52.0696C235.972 51.1908 238.169 50.0576 239.65 48.67C241.176 47.2824 242.147 45.7791 242.564 44.1602C243.026 42.5413 243.257 41.0381 243.257 39.6505V38.9567C243.257 35.7189 242.24 33.0362 240.205 30.9085C238.216 28.827 235.602 27.4163 232.365 26.6762Z" fill="white"/>
<path d="M301.985 53.4573V42.2176H268.82V33.8225H300.944V22.1665H268.82V13.2163H302.401V1.83786H254.736V53.4573H301.985Z" fill="white"/>
<path d="M338.726 0.935917C334.702 0.935917 331.233 1.21344 328.319 1.76849C325.405 2.32353 322.953 3.0636 320.965 3.98868C318.976 4.91376 317.357 5.97759 316.108 7.1802C314.905 8.3828 313.98 9.60852 313.333 10.8574C312.685 12.1525 312.246 13.4245 312.014 14.6733C311.829 15.9222 311.737 17.0554 311.737 18.073V18.8362H327.278C327.324 18.2811 327.463 17.5642 327.694 16.6854C327.972 15.8528 328.504 15.0434 329.29 14.257C330.123 13.4707 331.325 12.8 332.898 12.245C334.517 11.69 336.691 11.4124 339.42 11.4124H339.906C342.588 11.4124 344.716 11.5974 346.289 11.9675C347.907 12.3375 349.133 12.8001 349.966 13.3551C350.845 13.9564 351.4 14.6271 351.631 15.3671C351.908 16.1072 352.047 16.8473 352.047 17.5873C352.047 18.3274 351.885 19.0212 351.562 19.6688C351.284 20.3163 350.752 20.8482 349.966 21.2645C349.179 21.7271 348.092 22.0971 346.705 22.3746C345.364 22.6521 343.629 22.8371 341.501 22.9297L334.633 23.1378C330.377 23.2766 326.816 23.7622 323.948 24.5948C321.126 25.4736 318.837 26.5837 317.079 27.9251C315.368 29.3127 314.142 30.8853 313.402 32.643C312.662 34.4006 312.292 36.2508 312.292 38.1935V38.8179C312.292 40.8068 312.616 42.7263 313.263 44.5765C313.957 46.4267 315.229 48.0456 317.079 49.4332C318.976 50.867 321.589 52.0003 324.919 52.8328C328.25 53.6654 332.597 54.0817 337.963 54.0817H340.322C346.011 54.0817 350.567 53.596 353.99 52.6247C357.413 51.6996 360.026 50.497 361.83 49.0169C363.68 47.583 364.883 45.9641 365.438 44.1602C365.993 42.4026 366.27 40.668 366.27 38.9567V38.1935H350.937C350.845 38.7485 350.66 39.3498 350.382 39.9974C350.105 40.6912 349.549 41.3156 348.717 41.8707C347.931 42.472 346.797 42.9576 345.317 43.3277C343.837 43.6977 341.848 43.8827 339.35 43.8827H338.657C336.344 43.8827 334.448 43.7671 332.967 43.5358C331.534 43.3508 330.4 43.0501 329.568 42.6338C328.735 42.2638 328.157 41.7781 327.833 41.1768C327.509 40.6218 327.348 39.9974 327.348 39.3036C327.348 38.656 327.486 38.0316 327.764 37.4303C328.041 36.8752 328.55 36.3896 329.29 35.9733C330.03 35.557 331.048 35.2101 332.343 34.9326C333.638 34.655 335.303 34.47 337.338 34.3775L344.485 34.1C349.064 33.915 352.834 33.4062 355.794 32.5736C358.754 31.7873 361.09 30.7234 362.801 29.3821C364.513 28.087 365.692 26.5375 366.34 24.7336C366.987 22.9759 367.311 21.0564 367.311 18.975V18.1424C367.311 16.246 367.01 14.2802 366.409 12.245C365.808 10.2098 364.559 8.35967 362.662 6.69453C360.812 5.02939 358.13 3.64176 354.614 2.53167C351.145 1.46783 346.52 0.935917 340.738 0.935917H338.726Z" fill="white"/>
</svg>
