<svg width="603" height="203" viewBox="0 0 603 203" fill="none" xmlns="http://www.w3.org/2000/svg">
<path d="M24.9039 162.993V163.697H5.98388L21.2079 176.193C23.7599 178.305 25.2559 181.473 25.2559 184.817C25.2559 191.153 19.7119 196.169 13.4639 196.169C10.2079 196.169 7.12788 194.849 4.83988 192.561L5.36788 192.121V192.209C7.12788 193.969 9.50388 194.761 11.7919 194.761C17.1599 194.761 21.3839 190.097 21.3839 184.817C21.3839 181.649 19.9759 178.745 17.5999 176.721L0.879883 162.993H24.9039Z" fill="white"/>
<path d="M35.1497 166.337C38.5817 163.081 42.8937 161.409 47.2937 161.409C51.6057 161.409 55.9177 162.993 59.2617 166.161L60.1417 167.041C63.1337 170.385 64.6297 174.521 64.6297 178.745C64.6297 188.337 56.8857 196.081 47.2937 196.081C42.9817 196.081 38.6697 194.497 35.3257 191.329L34.4457 190.449C28.1977 183.585 28.4617 172.849 35.1497 166.337ZM57.0617 188.073C60.0537 184.993 61.9897 181.209 62.4297 177.337C62.8697 173.553 61.9017 170.033 59.6137 167.481L58.8217 166.689C56.5337 164.665 53.6297 163.609 50.4617 163.609C46.2377 163.609 41.6617 165.457 37.9657 168.977L57.0617 188.073ZM34.9737 190.009L35.7657 190.801C38.0537 192.913 40.9577 193.881 44.1257 193.881C48.3497 193.881 52.9257 192.033 56.6217 188.513L37.5257 169.417C34.5337 172.497 32.5977 176.281 32.1577 180.153C31.7177 184.025 32.6857 187.457 34.9737 190.009Z" fill="white"/>
<path d="M74.3392 196.169L68.3552 189.393V187.985L74.3392 194.761V162.993H78.2112V196.169H74.3392Z" fill="white"/>
<path d="M85.9979 165.193C88.5499 162.641 92.0699 161.233 95.5899 161.233C102.806 161.233 108.79 167.041 109.054 174.345V175.401C108.878 182.617 102.63 188.337 95.5019 188.337C91.8059 188.337 88.0219 186.841 85.6459 184.025C89.3419 191.417 95.4139 197.313 102.718 201.185L104.214 201.977L103.95 202.593L102.454 201.801C92.7739 196.961 87.0539 189.481 82.9179 179.801C81.0699 174.785 82.1259 169.065 85.9979 165.193ZM84.7659 181.649C86.1739 184.817 89.5179 186.489 92.9499 186.225C96.5579 185.961 99.9019 184.201 102.454 181.649C105.094 178.921 107.294 174.873 107.03 170.913C107.03 168.537 105.886 166.249 103.95 164.841C101.838 163.257 99.0219 162.993 96.4699 163.521C93.5659 164.137 90.7499 165.809 88.6379 167.921C85.2939 171.265 82.6539 176.897 84.7659 181.649Z" fill="white"/>
<path d="M1.62402 140.289H29.056C33.712 140.289 37.792 139.929 41.296 139.209C44.8 138.489 47.824 137.505 50.368 136.257C52.912 135.009 55.024 133.545 56.704 131.865C58.384 130.233 59.704 128.481 60.664 126.609C61.672 124.785 62.368 122.913 62.752 120.993C63.184 119.073 63.4 117.201 63.4 115.377V113.217C63.4 111.345 63.232 109.377 62.896 107.313C62.56 105.297 61.936 103.305 61.024 101.337C60.112 99.3685 58.864 97.4965 57.28 95.7205C55.696 93.9925 53.632 92.4565 51.088 91.1125C48.544 89.7685 45.472 88.6885 41.872 87.8725C38.272 87.1045 34.024 86.7205 29.128 86.7205H1.62402V140.289ZM16.456 98.6725H28.408C32.92 98.6725 36.472 99.1525 39.064 100.113C41.656 101.121 43.6 102.345 44.896 103.785C46.24 105.273 47.08 106.881 47.416 108.609C47.8 110.337 47.992 111.969 47.992 113.505V113.937C47.992 115.425 47.8 117.009 47.416 118.689C47.08 120.417 46.24 122.001 44.896 123.441C43.552 124.881 41.584 126.057 38.992 126.969C36.4 127.929 32.872 128.409 28.408 128.409H16.456V98.6725Z" fill="white"/>
<path d="M99.9361 129.489L90.5041 107.673H109.656L99.9361 129.489ZM114.624 96.6565H85.6801L81.3601 86.7205H66.4561L90.2161 140.289H110.088L134.928 86.7205H119.016L114.624 96.6565Z" fill="white"/>
<path d="M156.791 121.425V86.7205H142.319V140.289H157.583L188.903 105.801V140.289H203.303V86.7205H188.759L156.791 121.425Z" fill="white"/>
<path d="M242.417 85.7845C238.241 85.7845 234.641 86.0725 231.617 86.6485C228.593 87.2245 226.049 87.9925 223.985 88.9525C221.921 89.9125 220.241 91.0165 218.945 92.2645C217.697 93.5125 216.737 94.7845 216.065 96.0805C215.393 97.4245 214.937 98.7445 214.697 100.041C214.505 101.337 214.409 102.513 214.409 103.569V104.361H230.537C230.585 103.785 230.729 103.041 230.969 102.129C231.257 101.265 231.809 100.425 232.625 99.6085C233.489 98.7925 234.737 98.0965 236.369 97.5205C238.049 96.9445 240.305 96.6565 243.137 96.6565H243.641C246.425 96.6565 248.633 96.8485 250.265 97.2325C251.945 97.6165 253.217 98.0965 254.081 98.6725C254.993 99.2965 255.569 99.9925 255.809 100.761C256.097 101.529 256.241 102.297 256.241 103.065C256.241 103.833 256.073 104.553 255.737 105.225C255.449 105.897 254.897 106.449 254.081 106.881C253.265 107.361 252.137 107.745 250.697 108.033C249.305 108.321 247.505 108.513 245.297 108.609L238.169 108.825C233.753 108.969 230.057 109.473 227.081 110.337C224.153 111.249 221.777 112.401 219.953 113.793C218.177 115.233 216.905 116.865 216.137 118.689C215.369 120.513 214.985 122.433 214.985 124.449V125.097C214.985 127.161 215.321 129.153 215.993 131.073C216.713 132.993 218.033 134.673 219.953 136.113C221.921 137.601 224.633 138.777 228.089 139.641C231.545 140.505 236.057 140.937 241.625 140.937H244.073C249.977 140.937 254.705 140.433 258.257 139.425C261.809 138.465 264.521 137.217 266.393 135.681C268.313 134.193 269.561 132.513 270.137 130.641C270.713 128.817 271.001 127.017 271.001 125.241V124.449H255.089C254.993 125.025 254.801 125.649 254.513 126.321C254.225 127.041 253.649 127.689 252.785 128.265C251.969 128.889 250.793 129.393 249.257 129.777C247.721 130.161 245.657 130.353 243.065 130.353H242.345C239.945 130.353 237.977 130.233 236.441 129.993C234.953 129.801 233.777 129.489 232.913 129.057C232.049 128.673 231.449 128.169 231.113 127.545C230.777 126.969 230.609 126.321 230.609 125.601C230.609 124.929 230.753 124.281 231.041 123.657C231.329 123.081 231.857 122.577 232.625 122.145C233.393 121.713 234.449 121.353 235.793 121.065C237.137 120.777 238.865 120.585 240.977 120.489L248.393 120.201C253.145 120.009 257.057 119.481 260.129 118.617C263.201 117.801 265.625 116.697 267.401 115.305C269.177 113.961 270.401 112.353 271.073 110.481C271.745 108.657 272.081 106.665 272.081 104.505V103.641C272.081 101.673 271.769 99.6325 271.145 97.5205C270.521 95.4085 269.225 93.4885 267.257 91.7605C265.337 90.0325 262.553 88.5925 258.905 87.4405C255.305 86.3365 250.505 85.7845 244.505 85.7845H242.417Z" fill="white"/>
<path d="M16.456 55.2885V14.3206H49.216V1.72055H1.62402V55.2885H16.456Z" fill="white"/>
<path d="M87.3501 44.4885L77.9181 22.6726H97.0701L87.3501 44.4885ZM102.038 11.6566H73.0941L68.7741 1.72055H53.8701L77.6301 55.2885H97.5021L122.342 1.72055H106.43L102.038 11.6566Z" fill="white"/>
<path d="M165.378 55.2885V14.3206H198.138V1.72055H150.546V55.2885H165.378Z" fill="white"/>
<path d="M257.304 55.2885V43.6246H222.888V34.9125H256.224V22.8165H222.888V13.5285H257.736V1.72055H208.272V55.2885H257.304ZM225.408 59.6805L231.96 70.3365H247.944L240.312 59.6805H225.408Z" fill="white"/>
<path d="M298.241 0.928561C294.305 0.928561 290.801 1.31255 287.729 2.08055C284.657 2.84855 281.969 3.88056 279.665 5.17656C277.409 6.52056 275.465 8.05655 273.833 9.78455C272.249 11.5605 270.953 13.4326 269.945 15.4006C268.985 17.4165 268.289 19.4566 267.857 21.5206C267.425 23.6326 267.209 25.6966 267.209 27.7126V29.6566C267.209 31.5286 267.401 33.4726 267.785 35.4886C268.217 37.5526 268.913 39.5685 269.873 41.5365C270.881 43.5045 272.153 45.3526 273.689 47.0806C275.273 48.8566 277.217 50.3925 279.521 51.6885C281.873 53.0325 284.609 54.0885 287.729 54.8565C290.849 55.6245 294.449 56.0085 298.529 56.0085H300.977C306.785 56.0085 311.657 55.4325 315.593 54.2805C319.529 53.1285 322.697 51.6405 325.097 49.8166C327.497 47.9926 329.201 45.9526 330.209 43.6965C331.217 41.4405 331.721 39.2085 331.721 37.0005V36.8565H316.385C316.241 37.1925 315.953 37.7446 315.521 38.5126C315.089 39.3285 314.273 40.1205 313.073 40.8886C311.921 41.7046 310.289 42.4005 308.177 42.9765C306.065 43.6005 303.281 43.9125 299.825 43.9125C296.513 43.9125 293.753 43.4805 291.545 42.6165C289.385 41.8005 287.633 40.6965 286.289 39.3045C284.945 37.9125 283.985 36.3285 283.409 34.5525C282.881 32.8245 282.617 31.0726 282.617 29.2966V28.3605C282.617 26.6325 282.905 24.8566 283.481 23.0326C284.105 21.2086 285.113 19.5526 286.505 18.0646C287.897 16.5766 289.721 15.3526 291.977 14.3926C294.233 13.4806 297.017 13.0246 300.329 13.0246C303.497 13.0246 306.089 13.3846 308.105 14.1046C310.121 14.8246 311.705 15.6406 312.857 16.5526C314.009 17.5125 314.801 18.4485 315.233 19.3605C315.713 20.3205 315.977 20.9926 316.025 21.3766H301.481V30.9525H332.369V1.72055H320.561C320.513 2.20055 320.417 2.77655 320.273 3.44855C320.177 4.12055 320.033 4.79256 319.841 5.46456C319.697 6.18456 319.529 6.85656 319.337 7.48056C319.145 8.15256 318.953 8.70455 318.761 9.13655C318.473 8.75255 317.873 8.10455 316.961 7.19255C316.097 6.32855 314.897 5.41656 313.361 4.45656C311.825 3.54456 309.905 2.72855 307.601 2.00855C305.297 1.28855 302.561 0.928561 299.393 0.928561H298.241Z" fill="white"/>
<path d="M393.781 55.2885V43.6246H359.365V34.9125H392.701V22.8165H359.365V13.5285H394.213V1.72055H344.749V55.2885H393.781Z" fill="white"/>
<path d="M420.533 36.4245V1.72055H406.061V55.2885H421.325L452.645 20.8006V55.2885H467.045V1.72055H452.501L420.533 36.4245Z" fill="white"/>
<path d="M480.311 55.2885H507.743C512.399 55.2885 516.479 54.9285 519.983 54.2085C523.487 53.4885 526.511 52.5045 529.055 51.2565C531.599 50.0085 533.711 48.5445 535.391 46.8645C537.071 45.2325 538.391 43.4805 539.351 41.6085C540.359 39.7845 541.055 37.9125 541.439 35.9925C541.871 34.0725 542.087 32.2006 542.087 30.3766V28.2165C542.087 26.3445 541.919 24.3766 541.583 22.3126C541.247 20.2966 540.623 18.3046 539.711 16.3366C538.799 14.3686 537.551 12.4966 535.967 10.7206C534.383 8.99255 532.319 7.45655 529.775 6.11255C527.231 4.76855 524.159 3.68856 520.559 2.87256C516.959 2.10456 512.711 1.72055 507.815 1.72055H480.311V55.2885ZM495.143 13.6726H507.095C511.607 13.6726 515.159 14.1526 517.751 15.1126C520.343 16.1206 522.287 17.3446 523.583 18.7846C524.927 20.2726 525.767 21.8805 526.103 23.6085C526.487 25.3365 526.679 26.9686 526.679 28.5046V28.9366C526.679 30.4245 526.487 32.0085 526.103 33.6885C525.767 35.4165 524.927 37.0006 523.583 38.4406C522.239 39.8806 520.271 41.0565 517.679 41.9685C515.087 42.9285 511.559 43.4085 507.095 43.4085H495.143V13.6726Z" fill="white"/>
<path d="M601.836 55.2885V43.6246H567.42V34.9125H600.756V22.8165H567.42V13.5285H602.268V1.72055H552.804V55.2885H601.836Z" fill="white"/>
</svg>
