<svg width="690" height="131" viewBox="0 0 690 131" fill="none" xmlns="http://www.w3.org/2000/svg">
<path d="M0.187256 129.473C1.34135 129.473 2.35118 128.896 3.07249 128.175C3.93806 127.454 4.37085 126.444 4.37085 125.29V50.2736C4.37085 47.9654 2.49545 46.09 0.187256 46.09V44.9359H14.7577V46.09C12.4495 46.09 10.8626 47.6769 10.8626 49.9851V130.483H0.187256V129.473Z" fill="black"/>
<path d="M23.6918 48.1097C27.5869 43.6375 33.3573 41.4736 38.9836 42.1949C44.0327 42.772 48.5048 45.5129 51.3901 49.5523C51.9671 50.4178 53.4098 49.9851 53.4098 48.9752V45.0802H63.6523V46.09C62.4983 46.09 61.6327 46.667 60.9114 47.2441C60.1901 47.9654 59.7573 48.9752 59.7573 49.9851V79.126C59.7573 85.185 59.036 90.0899 54.5638 94.562C51.2458 97.7358 46.7737 99.3226 42.3016 99.4669C32.4918 99.4669 24.5574 91.5325 24.5574 81.8669H25.7115C25.7115 90.9554 33.0688 98.4571 42.3016 98.4571C45.1868 98.4571 47.9278 96.5817 49.9475 93.8407C50.813 92.6866 50.6688 91.244 49.6589 90.2341C43.1672 84.3194 36.0983 79.4145 28.4524 75.0866C24.1246 72.7784 20.8066 68.3063 19.7967 63.4014C18.4984 58.0637 20.0853 52.2933 23.6918 48.1097ZM25.2787 71.3358C26.4328 72.4899 27.5869 73.3555 29.0295 74.2211C37.5409 78.8374 44.4655 83.8866 50.236 89.2243C51.1016 90.0899 52.3999 89.6571 52.8327 88.503C53.1212 87.4932 53.4098 85.9063 53.4098 83.5981V57.3424C52.8327 53.7359 51.2458 50.4178 48.5048 47.8211L48.3606 47.6769C46.7737 46.2343 44.754 45.5129 42.3016 45.5129C33.3573 45.5129 24.7016 54.0244 23.1148 62.5359C22.3934 66.1424 23.1148 69.3162 25.2787 71.3358Z" fill="black"/>
<path d="M134.16 41.7621H134.593C140.508 41.7621 146.134 43.4933 150.75 46.8113V44.9359H161.426V46.09C159.118 46.09 157.242 47.9654 157.242 50.2736V52.726L156.809 125.29C156.809 127.598 158.685 129.473 160.993 129.473V130.627L146.423 130.483V129.329C148.587 129.185 150.318 127.454 150.318 125.146L150.462 99.0341C150.462 97.303 148.731 96.1489 147.144 96.8702C143.249 98.7456 139.065 99.7554 134.593 99.7554C126.947 99.8997 119.59 96.8702 114.108 91.3882C108.626 86.0505 105.452 78.6932 105.452 70.903C105.308 55.0342 118.292 41.9064 134.16 41.7621ZM111.944 70.903C111.944 86.1948 122.042 98.6013 134.449 98.7456H134.593C140.075 98.6013 145.269 96.1489 149.308 91.821C150.173 90.9554 150.462 89.9456 150.462 88.7915L150.75 53.1588C150.75 52.0047 150.318 50.9949 149.596 50.1293C145.557 45.6572 140.219 42.9162 134.305 42.9162H134.16C121.754 43.0605 111.8 55.6113 111.944 70.903Z" fill="black"/>
<path d="M165.299 99.3226V98.1685C167.608 98.1685 169.483 96.2931 169.483 93.9849V50.2736C169.483 47.9654 167.608 46.09 165.299 46.09V44.9359H179.87V46.09C177.562 46.09 175.975 47.6769 175.975 49.9851V93.9849C175.975 96.1489 177.562 98.0243 179.87 98.1685V99.3226H165.299ZM172.513 110.719L176.696 114.903L172.513 119.087L168.329 114.903L172.513 110.719Z" fill="black"/>
<path d="M187.217 73.4998C192.411 66.1424 202.076 64.9883 209.866 61.9588C212.174 61.0932 214.194 59.7949 215.492 57.7752C216.935 55.467 217.368 52.726 216.358 50.1293C216.214 49.8408 216.07 49.5523 215.925 49.408C214.194 45.8015 209.866 43.7818 206.115 43.2048C202.22 42.772 198.037 43.6375 194.863 45.9457L194.43 46.3785C193.132 47.2441 191.545 49.2637 190.968 50.7064C190.824 50.9949 189.814 54.7457 190.102 54.7457H188.948V42.4834H190.102C190.247 43.2047 190.102 43.9261 189.958 44.7916C189.958 45.5129 190.247 46.3785 190.968 46.8113C191.401 46.9556 191.834 46.8113 192.266 46.667C192.699 46.3785 193.132 46.09 193.42 45.8015C195.873 43.6375 199.047 42.4834 202.365 42.1949C209.578 41.4736 217.512 44.7916 219.532 52.2932C220.974 58.0637 217.512 63.8342 212.607 66.5752C208.279 69.1719 203.23 70.326 198.614 71.9129C193.853 73.644 189.237 76.385 187.794 81.5784C186.784 85.3292 187.938 89.3686 190.679 92.1095C194.719 96.4374 200.922 98.3128 206.837 97.5915C211.886 97.0144 216.791 94.562 219.676 90.3784C220.253 89.6571 220.686 88.9358 221.119 88.0702C221.119 87.9259 221.551 86.3391 221.696 86.3391H222.994V98.0243H221.984V93.6964C221.984 92.2538 220.253 91.6768 219.388 92.6866C215.637 96.5817 209.866 99.0341 203.519 98.8898C198.325 98.7456 193.132 97.0144 189.237 93.5522C183.466 88.3587 182.889 79.703 187.217 73.4998Z" fill="black"/>
<path d="M229.427 70.6145C229.716 54.89 242.122 42.4834 257.847 42.4834H258.135C273.716 42.772 286.266 55.1785 286.266 70.903H282.227C282.371 70.1817 282.516 69.3162 282.66 68.5948C283.381 61.9588 281.506 56.0441 277.466 51.8605C273.716 47.9654 268.522 46.09 263.04 46.09C256.116 46.09 248.47 49.1195 242.411 55.0342C231.591 65.5653 229.716 81.2899 238.227 89.9456C241.978 93.6964 246.883 95.7161 252.653 95.7161H254.817C255.971 95.5718 256.837 95.4276 257.847 95.139V99.3226H257.558C249.912 99.1784 242.844 96.1489 237.506 90.8112C232.168 85.3292 229.283 78.1161 229.427 70.6145Z" fill="black"/>
<path d="M301.335 50.4179C306.961 45.0802 314.03 42.3392 321.243 42.3392C328.312 42.3392 335.381 44.9359 340.863 50.1293L342.305 51.5719C347.21 57.0539 349.663 63.8342 349.663 70.7588C349.663 86.4833 336.968 99.1784 321.243 99.1784C314.174 99.1784 307.106 96.5817 301.624 91.3882L300.181 89.9456C289.938 78.6932 290.371 61.0932 301.335 50.4179ZM301.047 89.2243L302.345 90.5227C306.096 93.9849 310.856 95.5718 316.05 95.5718C330.476 95.5718 344.469 82.7325 346.056 68.4506C346.778 62.2473 345.191 56.4768 341.44 52.2932L340.142 50.9949C336.535 47.6769 331.63 45.9457 326.437 45.9457C311.722 45.9457 298.306 58.6408 296.43 73.067C295.709 79.4145 297.296 85.0407 301.047 89.2243Z" fill="black"/>
<path d="M357.646 5.98518C359.954 2.81142 363.56 0.647484 367.455 0.35896C370.774 0.2147 374.957 0.358959 378.419 0.503219C382.892 0.503219 387.219 0.50322 391.547 0.35896C399.77 0.35896 406.983 2.37863 408.859 11.6114C409.003 12.3327 409.147 13.054 409.147 13.7753H407.993C407.993 9.73599 405.829 5.69665 402.223 3.67699C398.76 1.65732 394.577 1.65732 390.682 1.80158C384.623 1.80158 378.419 1.94585 372.36 2.23437C370.196 2.37863 367.744 2.37863 365.724 3.2442C362.406 4.68682 360.098 7.86059 359.521 11.3229C359.377 12.3327 359.377 13.3425 359.521 14.3524C359.954 17.3819 361.685 19.8343 364.137 21.4212C367.023 23.2966 370.773 23.2966 374.092 23.1523C381.016 23.1523 388.085 23.4409 395.009 23.5851C399.193 23.7294 403.521 23.7294 407.56 24.4507C414.196 25.6048 419.534 31.6638 418.957 38.7326V38.8769C418.524 44.0703 415.927 48.6867 410.878 50.7064C409.291 51.2834 408.714 53.3031 409.724 54.7457C415.639 63.5457 416.072 74.9424 411.167 84.1751C410.59 85.4735 411.023 87.0604 412.177 87.7817C416.216 89.9456 418.957 94.2735 418.957 99.1784H417.803C417.803 94.4177 415.062 90.3784 411.167 88.503C410.013 87.9259 408.859 88.3587 407.849 89.2243C406.983 89.9456 406.55 90.6669 405.829 91.244C400.347 96.7259 392.99 99.4669 385.777 99.4669C378.275 99.4669 370.773 96.5817 365.292 90.8112C354.183 79.4145 354.328 61.2375 365.724 50.1293C371.351 44.6474 378.564 41.9064 385.777 41.9064C391.403 41.9064 396.885 43.6375 401.79 46.8113C403.521 47.9654 405.685 48.5424 407.705 48.5424C411.744 48.5424 415.639 46.5228 417.226 42.4834C418.524 39.1654 417.659 35.4146 415.495 32.8179C414.341 31.3753 412.898 30.2212 411.167 29.4999C409.291 28.6343 407.56 28.3458 405.396 28.49C401.069 28.49 396.741 28.6343 392.413 28.9228C385.921 29.3556 379.285 29.2113 372.649 29.3556C368.61 29.3556 364.715 29.2113 361.252 26.7589C354.328 22.2868 352.597 12.6212 357.646 5.98518ZM366.013 90.0899C369.764 93.8407 374.957 95.8604 380.583 95.8604C395.442 95.8604 409.003 82.7325 410.878 68.3063C411.6 61.6703 409.724 55.6113 405.541 51.4277C401.79 47.5326 396.596 45.6572 390.97 45.6572C376.255 45.6572 362.551 58.6408 360.675 73.067C359.954 79.703 361.829 85.762 366.013 90.0899Z" fill="black"/>
<path d="M421.961 98.1685C423.115 98.1685 424.124 97.7358 424.846 96.8702C425.711 96.1489 426.144 95.139 426.144 93.9849V50.2736C426.144 48.2539 424.269 46.2343 422.249 46.2343H421.961V44.9359H436.82V46.09C434.511 46.09 432.636 47.9654 432.636 50.2736L432.78 84.3194V89.3686C432.78 92.6866 434.944 95.5718 437.829 97.0144H437.974C439.849 97.7358 441.869 98.1685 444.033 98.1685C446.341 98.1685 448.36 97.7358 450.236 97.0144C450.38 97.0144 450.38 96.8702 450.524 96.8702C453.41 95.7161 455.285 92.8309 455.429 89.6571H459.901C458.747 91.6768 457.305 93.5522 455.574 95.139C452.4 97.7358 448.505 99.3226 444.033 99.3226C441.292 99.3226 438.406 98.4571 435.954 97.1587C434.367 96.4374 432.492 97.4472 432.492 99.1784V99.3226H421.961V98.1685Z" fill="black"/>
<path d="M461.408 48.1097C465.303 43.6375 471.074 41.4736 476.7 42.1949C481.749 42.772 486.221 45.5129 489.107 49.5523C489.684 50.4178 491.126 49.9851 491.126 48.9752V45.0802H501.369V46.09C500.215 46.09 499.349 46.667 498.628 47.2441C497.907 47.9654 497.474 48.9752 497.474 49.9851V79.126C497.474 85.185 496.752 90.0899 492.28 94.562C488.962 97.7358 484.49 99.3226 480.018 99.4669C470.208 99.4669 462.274 91.5325 462.274 81.8669H463.428C463.428 90.9554 470.785 98.4571 480.018 98.4571C482.903 98.4571 485.644 96.5817 487.664 93.8407C488.53 92.6866 488.385 91.244 487.375 90.2341C480.884 84.3194 473.815 79.4145 466.169 75.0866C461.841 72.7784 458.523 68.3063 457.513 63.4014C456.215 58.0637 457.802 52.2933 461.408 48.1097ZM462.995 71.3358C464.149 72.4899 465.303 73.3555 466.746 74.2211C475.257 78.8374 482.182 83.8866 487.952 89.2243C488.818 90.0899 490.116 89.6571 490.549 88.503C490.838 87.4932 491.126 85.9063 491.126 83.5981V57.3424C490.549 53.7359 488.962 50.4178 486.221 47.8211L486.077 47.6769C484.49 46.2343 482.471 45.5129 480.018 45.5129C471.074 45.5129 462.418 54.0244 460.831 62.5359C460.11 66.1424 460.831 69.3162 462.995 71.3358Z" fill="black"/>
<path d="M502.709 98.0243C505.017 98.0243 506.892 96.1489 506.892 93.8407V91.3882L507.325 9.15894C507.325 8.1491 506.892 6.99501 506.171 6.2737C505.306 5.5524 504.296 5.11961 503.142 5.11961V3.96551L517.568 4.10977V5.11961C515.404 5.26387 513.673 7.13928 513.673 9.30321L513.529 37.0015V43.4933C513.529 45.2244 515.26 46.2343 516.847 45.5129C520.597 43.6375 524.781 42.6277 529.109 42.6277C544.978 42.6277 557.961 55.1785 557.961 71.1916C558.105 86.9161 545.41 99.7554 529.542 99.8997H529.109C524.204 99.8997 519.299 98.6013 515.115 96.1489C514.25 95.7161 513.24 96.2931 513.24 97.303V99.1784L502.709 99.0341V98.0243ZM514.394 91.6768C518.289 96.1489 523.627 98.8898 529.397 98.8898H529.542C541.804 98.7456 551.758 86.3391 551.614 71.1916C551.469 56.0441 541.515 43.7818 529.397 43.7818H529.109C523.771 43.7818 518.578 46.2343 514.538 50.5621C513.817 51.4277 513.529 52.4375 513.529 53.4473L513.24 88.9358C513.24 89.9456 513.673 90.9554 514.394 91.6768Z" fill="black"/>
<path d="M563.992 44.9359H578.851V46.09C577.697 46.09 576.543 46.5228 575.821 47.3883C575.1 48.1097 574.667 49.1195 574.667 50.2736L574.812 84.3194C575.533 90.2341 579.284 98.1685 586.208 98.1685C591.979 98.1685 596.739 91.9653 597.461 83.8866L597.316 52.726V50.2736C597.316 48.1097 595.441 46.09 593.133 46.09V45.0802L603.664 44.9359H607.992V46.09C606.838 46.09 605.684 46.5228 604.962 47.3883C604.241 48.1097 603.808 49.1195 603.808 50.2736L603.953 81.5784V81.7227C603.953 91.3882 595.73 99.3226 586.208 99.3226C583.179 99.3226 580.438 98.6013 577.985 97.303C576.543 96.5817 574.956 97.5915 574.956 99.1784L575.1 122.693V125.146C575.1 127.309 576.831 129.329 578.995 129.329H579.284V130.483H564.425V129.473C566.877 129.185 568.608 127.742 568.608 125.146L568.464 89.08L568.32 82.2997V81.5784L568.176 52.726V50.2736C568.176 48.1097 566.156 46.09 563.992 46.09V44.9359Z" fill="black"/>
<path d="M612.596 99.3226V98.1685C614.904 98.1685 616.779 96.2931 616.779 93.9849V50.2736C616.779 47.9654 614.904 46.09 612.596 46.09V44.9359H627.166V46.09C624.858 46.09 623.271 47.6769 623.271 49.9851V93.9849C623.271 96.1489 624.858 98.0243 627.166 98.1685V99.3226H612.596ZM619.809 110.719L623.993 114.903L619.809 119.087L615.625 114.903L619.809 110.719Z" fill="black"/>
<path d="M632.205 70.4703C632.35 62.5359 635.956 53.8801 642.448 48.9752L642.881 48.5424C647.786 44.5031 654.133 42.3392 660.625 42.3392H660.913C676.638 42.6277 689.045 55.0342 689.045 70.7588H685.005C686.159 63.6899 685.438 57.0539 680.1 51.7162C676.35 47.8211 671.3 45.9457 665.818 45.9457C659.904 45.9457 653.7 48.1097 648.218 52.2932C647.353 53.0146 647.064 54.1687 647.641 55.1785C655.576 68.4506 661.202 83.5981 661.202 99.1784H660.192C652.691 99.0341 645.622 96.0046 640.284 90.5227C634.946 85.185 632.061 77.9719 632.205 70.4703ZM641.005 89.8014C644.756 93.5522 649.661 95.5718 655.432 95.5718H657.307C657.595 95.5718 657.884 95.5718 658.461 95.4276C659.182 95.139 659.904 94.4177 659.904 93.5522C659.182 86.3391 656.586 72.6342 646.92 56.0441C646.343 55.1785 645.045 55.0342 644.323 55.7555C639.851 60.2277 637.687 65.4211 636.1 71.4801C634.946 78.2604 636.389 85.0407 641.005 89.8014Z" fill="black"/>
</svg>
