<svg width="544" height="213" viewBox="0 0 544 213" fill="none" xmlns="http://www.w3.org/2000/svg">
<path d="M28.5582 176.297V177.061H8.02731L24.5476 190.621C27.3168 192.912 28.9402 196.35 28.9402 199.979C28.9402 206.854 22.9242 212.297 16.1442 212.297C12.611 212.297 9.26871 210.865 6.7859 208.382L7.35886 207.905V208C9.26871 209.91 11.847 210.769 14.3298 210.769C20.1549 210.769 24.7385 205.708 24.7385 199.979C24.7385 196.541 23.2107 193.39 20.6323 191.193L2.48873 176.297H28.5582Z" fill="white"/>
<path d="M39.6764 179.925C43.4006 176.392 48.0798 174.578 52.8544 174.578C57.5336 174.578 62.2127 176.297 65.8414 179.734L66.7964 180.689C70.0431 184.318 71.6665 188.806 71.6665 193.39C71.6665 203.799 63.2631 212.202 52.8544 212.202C48.1753 212.202 43.4961 210.483 39.8674 207.045L38.9125 206.09C32.1325 198.642 32.419 186.992 39.6764 179.925ZM63.4541 203.512C66.7009 200.17 68.8017 196.064 69.2792 191.862C69.7566 187.756 68.7062 183.936 66.2234 181.167L65.364 180.307C62.8812 178.111 59.7299 176.965 56.2922 176.965C51.7085 176.965 46.7429 178.97 42.7322 182.79L63.4541 203.512ZM39.4854 205.613L40.3449 206.472C42.8277 208.764 45.979 209.815 49.4167 209.815C54.0003 209.815 58.966 207.809 62.9767 203.989L42.2547 183.268C39.008 186.61 36.9071 190.716 36.4297 194.918C35.9522 199.119 37.0026 202.844 39.4854 205.613Z" fill="white"/>
<path d="M82.2028 212.297L75.7093 204.944V203.417L82.2028 210.769V176.297H86.4045V212.297H82.2028Z" fill="white"/>
<path d="M88.9335 178.779C91.8938 176.01 95.618 174.578 99.3422 174.578C103.066 174.578 106.791 175.915 109.655 178.684L110.419 179.448C112.998 182.313 114.335 185.846 114.335 189.475C114.335 197.687 107.65 204.371 99.4377 204.371C97.9098 204.371 96.382 204.18 94.9496 203.703V211.438H109.56V212.202H94.1856V202.08C94.4721 202.271 94.7586 202.366 94.9496 202.557C96.382 203.417 97.9098 203.799 99.3422 203.799C106.6 203.799 110.037 195.586 110.037 189.475C110.037 186.037 109.178 182.599 107.268 179.83C107.173 179.734 107.077 179.543 106.982 179.448C106.886 179.352 106.791 179.161 106.695 179.066C104.69 176.488 102.016 175.151 99.3422 175.151C96.6684 175.151 93.9946 176.488 91.8938 179.161C91.5118 179.734 91.1299 180.307 90.8434 180.88L88.838 178.97L88.9335 178.779Z" fill="white"/>
<path d="M19.3909 151.659V107.203H54.9403V93.5299H3.29608V151.659H19.3909Z" fill="white"/>
<path d="M119.145 151.659V139.002H81.7982V129.548H117.973V116.422H81.7982V106.343H119.613V93.5299H65.9377V151.659H119.145Z" fill="white"/>
<path d="M155.055 151.659H176.463L194.98 112.281L214.044 151.659H234.123V93.5299H218.419V131.579L200.762 93.5299H188.183L170.525 131.579V93.5299H155.055V151.659Z" fill="white"/>
<path d="M284.306 152.597C291.077 152.597 296.702 151.685 301.182 149.862C305.713 148.091 309.307 145.799 311.964 142.986C314.62 140.226 316.495 137.153 317.589 133.767C318.683 130.381 319.23 127.1 319.23 123.923V121.579C319.23 118.454 318.683 115.172 317.589 111.734C316.495 108.349 314.62 105.223 311.964 102.359C309.307 99.546 305.713 97.2021 301.182 95.3269C296.702 93.5039 291.077 92.5924 284.306 92.5924H280.868C276.336 92.5924 272.326 93.0091 268.836 93.8425C265.346 94.7279 262.299 95.8999 259.694 97.3583C257.142 98.8168 254.981 100.484 253.21 102.359C251.439 104.286 250.006 106.317 248.912 108.453C247.871 110.641 247.115 112.854 246.647 115.094C246.178 117.334 245.944 119.495 245.944 121.579V123.923C245.944 126.058 246.178 128.22 246.647 130.407C247.115 132.647 247.871 134.835 248.912 136.97C250.006 139.106 251.439 141.111 253.21 142.986C254.981 144.914 257.142 146.58 259.694 147.987C262.299 149.393 265.346 150.513 268.836 151.346C272.326 152.18 276.336 152.597 280.868 152.597H284.306ZM302.51 123.298C302.51 125.069 302.223 126.892 301.65 128.767C301.13 130.694 300.14 132.439 298.682 134.002C297.223 135.564 295.192 136.84 292.587 137.83C290.035 138.82 286.702 139.314 282.587 139.314C278.524 139.314 275.19 138.82 272.586 137.83C270.034 136.84 268.002 135.564 266.492 134.002C265.033 132.439 264.018 130.694 263.445 128.767C262.924 126.892 262.663 125.069 262.663 123.298V122.204C262.663 120.433 262.95 118.584 263.523 116.657C264.096 114.781 265.111 113.037 266.57 111.422C268.08 109.859 270.112 108.557 272.664 107.515C275.268 106.474 278.576 105.953 282.587 105.953C286.649 105.953 289.983 106.474 292.587 107.515C295.192 108.557 297.223 109.859 298.682 111.422C300.14 113.037 301.13 114.781 301.65 116.657C302.223 118.584 302.51 120.433 302.51 122.204V123.298Z" fill="white"/>
<path d="M346.705 131.189V93.5299H331.001V151.659H347.565L381.552 114.235V151.659H397.178V93.5299H381.395L346.705 131.189Z" fill="white"/>
<path d="M411.573 151.659H441.341C446.393 151.659 450.821 151.268 454.623 150.487C458.425 149.706 461.707 148.638 464.468 147.284C467.228 145.929 469.52 144.341 471.343 142.518C473.166 140.747 474.598 138.846 475.64 136.814C476.734 134.835 477.489 132.804 477.906 130.72C478.375 128.637 478.609 126.605 478.609 124.626V122.282C478.609 120.251 478.427 118.115 478.062 115.875C477.698 113.688 477.021 111.526 476.031 109.39C475.041 107.255 473.687 105.223 471.968 103.296C470.249 101.421 468.009 99.7543 465.249 98.2959C462.488 96.8375 459.155 95.6655 455.248 94.78C451.342 93.9466 446.732 93.5299 441.419 93.5299H411.573V151.659ZM427.668 106.5H440.638C445.534 106.5 449.388 107.02 452.201 108.062C455.014 109.156 457.123 110.484 458.53 112.047C459.988 113.662 460.9 115.406 461.264 117.282C461.681 119.157 461.889 120.928 461.889 122.594V123.063C461.889 124.678 461.681 126.397 461.264 128.22C460.9 130.095 459.988 131.814 458.53 133.376C457.071 134.939 454.936 136.215 452.123 137.205C449.31 138.247 445.482 138.767 440.638 138.767H427.668V106.5Z" fill="white"/>
<path d="M543.445 151.659V139.002H506.098V129.548H542.273V116.422H506.098V106.343H543.913V93.5299H490.238V151.659H543.445Z" fill="white"/>
<path d="M34.3139 0.433198C29.8865 0.433198 25.9799 0.875936 22.5943 1.76141C19.2086 2.64689 16.2657 3.81885 13.7656 5.27729C11.3175 6.78781 9.23399 8.50668 7.51512 10.4339C5.84834 12.3611 4.49408 14.3925 3.45234 16.5281C2.46269 18.7157 1.75951 20.9034 1.34282 23.091C0.926121 25.2787 0.717773 27.3621 0.717773 29.3415V31.6854C0.717773 33.7168 0.926121 35.8263 1.34282 38.0139C1.75951 40.2016 2.46269 42.3372 3.45234 44.4206C4.49408 46.5562 5.84834 48.5876 7.51512 50.5148C9.23399 52.442 11.3175 54.1088 13.7656 55.5152C16.2657 56.9736 19.2086 58.1195 22.5943 58.9529C25.9799 59.8384 29.8865 60.2811 34.3139 60.2811H37.9079C44.002 60.2811 49.1065 59.604 53.2214 58.2497C57.3884 56.8954 60.748 55.1245 63.3002 52.9368C65.8525 50.7492 67.6755 48.2751 68.7694 45.5145C69.8632 42.8059 70.4101 40.0714 70.4101 37.3108V37.1545H53.8465C53.7944 37.5712 53.56 38.3004 53.1433 39.3422C52.7266 40.436 51.8932 41.5559 50.6431 42.7018C49.393 43.8477 47.6221 44.8373 45.3302 45.6707C43.0384 46.5562 39.9653 46.9989 36.1109 46.9989C32.5689 46.9989 29.6 46.5301 27.204 45.5926C24.808 44.7071 22.8808 43.5091 21.4223 41.9986C19.9639 40.5401 18.9222 38.8473 18.2971 36.9201C17.7242 35.045 17.4377 33.1438 17.4377 31.2166V30.1228C17.4377 28.2997 17.7502 26.4246 18.3752 24.4974C19.0003 22.6222 20.042 20.8773 21.5005 19.2626C22.9589 17.6479 24.8861 16.3197 27.2821 15.278C29.6781 14.2883 32.6471 13.7935 36.189 13.7935C40.0434 13.7935 43.1165 14.2362 45.4084 15.1217C47.7523 16.0072 49.5232 17.0229 50.7212 18.1688C51.9713 19.3668 52.7787 20.5127 53.1433 21.6066C53.56 22.7525 53.7944 23.5598 53.8465 24.0286H70.4101V23.7942C70.4101 21.1378 69.8632 18.4292 68.7694 15.6686C67.7276 12.908 65.9306 10.3818 63.3784 8.08998C60.8782 5.85024 57.5446 4.00115 53.3777 2.54272C49.2107 1.13637 44.0541 0.433198 37.9079 0.433198H34.3139Z" fill="white"/>
<path d="M81.9606 59.4217H98.0555V37.8577H130.48V59.4217H146.574V1.29264H130.48V24.6536H98.0555V1.29264H81.9606V59.4217Z" fill="white"/>
<path d="M177.025 1.29264H160.93V59.4217H177.025V1.29264Z" fill="white"/>
<path d="M222.391 0.433198C217.964 0.433198 214.058 0.875936 210.672 1.76141C207.286 2.64689 204.343 3.81885 201.843 5.27729C199.395 6.78781 197.312 8.50668 195.593 10.4339C193.926 12.3611 192.572 14.3925 191.53 16.5281C190.54 18.7157 189.837 20.9034 189.42 23.091C189.004 25.2787 188.795 27.3621 188.795 29.3415V31.6854C188.795 33.7168 189.004 35.8263 189.42 38.0139C189.837 40.2016 190.54 42.3372 191.53 44.4206C192.572 46.5562 193.926 48.5876 195.593 50.5148C197.312 52.442 199.395 54.1088 201.843 55.5152C204.343 56.9736 207.286 58.1195 210.672 58.9529C214.058 59.8384 217.964 60.2811 222.391 60.2811H225.985C232.08 60.2811 237.184 59.604 241.299 58.2497C245.466 56.8954 248.826 55.1245 251.378 52.9368C253.93 50.7492 255.753 48.2751 256.847 45.5145C257.941 42.8059 258.488 40.0714 258.488 37.3108V37.1545H241.924C241.872 37.5712 241.638 38.3004 241.221 39.3422C240.804 40.436 239.971 41.5559 238.721 42.7018C237.471 43.8477 235.7 44.8373 233.408 45.6707C231.116 46.5562 228.043 46.9989 224.188 46.9989C220.647 46.9989 217.678 46.5301 215.282 45.5926C212.886 44.7071 210.958 43.5091 209.5 41.9986C208.042 40.5401 207 38.8473 206.375 36.9201C205.802 35.045 205.515 33.1438 205.515 31.2166V30.1228C205.515 28.2997 205.828 26.4246 206.453 24.4974C207.078 22.6222 208.12 20.8773 209.578 19.2626C211.037 17.6479 212.964 16.3197 215.36 15.278C217.756 14.2883 220.725 13.7935 224.267 13.7935C228.121 13.7935 231.194 14.2362 233.486 15.1217C235.83 16.0072 237.601 17.0229 238.799 18.1688C240.049 19.3668 240.856 20.5127 241.221 21.6066C241.638 22.7525 241.872 23.5598 241.924 24.0286H258.488V23.7942C258.488 21.1378 257.941 18.4292 256.847 15.6686C255.805 12.908 254.008 10.3818 251.456 8.08998C248.956 5.85024 245.622 4.00115 241.455 2.54272C237.288 1.13637 232.132 0.433198 225.985 0.433198H222.391Z" fill="white"/>
<path d="M305.822 60.3592C312.593 60.3592 318.219 59.4477 322.698 57.6247C327.23 55.8537 330.824 53.5619 333.48 50.7492C336.137 47.9886 338.012 44.9155 339.105 41.5298C340.199 38.1442 340.746 34.8627 340.746 31.6854V29.3415C340.746 26.2162 340.199 22.9348 339.105 19.497C338.012 16.1114 336.137 12.9862 333.48 10.1214C330.824 7.30868 327.23 4.96476 322.698 3.08963C318.219 1.26659 312.593 0.355077 305.822 0.355077H302.384C297.853 0.355077 293.842 0.771765 290.352 1.60516C286.862 2.49063 283.815 3.6626 281.211 5.12103C278.659 6.57947 276.497 8.24625 274.726 10.1214C272.955 12.0486 271.523 14.08 270.429 16.2156C269.387 18.4032 268.632 20.6169 268.163 22.8566C267.694 25.0964 267.46 27.258 267.46 29.3415V31.6854C267.46 33.8209 267.694 35.9825 268.163 38.1702C268.632 40.4099 269.387 42.5976 270.429 44.7332C271.523 46.8687 272.955 48.8741 274.726 50.7492C276.497 52.6764 278.659 54.3432 281.211 55.7495C283.815 57.1559 286.862 58.2758 290.352 59.1092C293.842 59.9425 297.853 60.3592 302.384 60.3592H305.822ZM324.026 31.0603C324.026 32.8313 323.74 34.6543 323.167 36.5295C322.646 38.4567 321.656 40.2016 320.198 41.7642C318.739 43.3268 316.708 44.6029 314.104 45.5926C311.551 46.5822 308.218 47.0771 304.103 47.0771C300.04 47.0771 296.707 46.5822 294.102 45.5926C291.55 44.6029 289.519 43.3268 288.008 41.7642C286.55 40.2016 285.534 38.4567 284.961 36.5295C284.44 34.6543 284.18 32.8313 284.18 31.0603V29.9665C284.18 28.1955 284.466 26.3465 285.039 24.4192C285.612 22.5441 286.628 20.7992 288.086 19.1845C289.597 17.6219 291.628 16.3197 294.18 15.278C296.785 14.2362 300.092 13.7154 304.103 13.7154C308.166 13.7154 311.499 14.2362 314.104 15.278C316.708 16.3197 318.739 17.6219 320.198 19.1845C321.656 20.7992 322.646 22.5441 323.167 24.4192C323.74 26.3465 324.026 28.1955 324.026 29.9665V31.0603Z" fill="white"/>
</svg>
