<svg width="179" height="94" viewBox="0 0 179 94" fill="none" xmlns="http://www.w3.org/2000/svg">
<path d="M0.33223 93.0456V91.9373C1.44053 91.9373 2.4103 91.5217 3.10299 90.829C3.93421 90.1363 4.34983 89.028 4.34983 87.9197V5.35114C4.34983 3.13454 2.54883 1.33355 0.33223 1.33355V0.225243H14.3245V1.33355C12.1079 1.33355 10.584 2.85746 10.584 5.07407V23.3611C10.584 25.0235 10.9996 26.5474 11.8309 27.9328C16.4026 35.1368 24.2993 39.8471 33.3042 39.8471H41.8936C56.8556 39.8471 69.3241 52.0384 69.047 66.8619C68.9084 81.4084 56.9942 93.0456 42.4477 93.0456H0.33223ZM14.3245 91.9373H42.4477C44.6643 91.9373 46.6038 91.7987 48.5434 91.2446C56.5786 87.9197 62.2586 78.0835 62.2586 66.4463C62.2586 54.9477 56.5786 45.3886 48.6819 41.7866C45.9112 41.0939 44.6643 40.9554 42.4477 40.9554H33.3042C25.9617 40.9554 19.3119 37.9075 14.4631 32.9202C13.9089 32.5046 13.3548 32.2275 12.8006 32.2275C11.6923 32.2275 10.584 33.1972 10.584 34.5826V87.9197C10.584 90.1363 12.1079 91.7987 14.3245 91.9373Z" fill="black"/>
<path d="M75.3126 1.33355V0.225243H89.3049V1.33355C85.7029 1.33355 82.7936 4.24284 82.7936 7.70628V84.5948C82.7936 85.5645 84.179 85.7031 84.4561 84.8718L111.332 0.225243H124.355V1.33355C120.753 1.33355 117.844 4.24284 117.844 7.70628V85.5645C117.844 89.1665 120.753 91.9373 124.355 91.9373V93.0456H110.363V91.9373C113.826 91.9373 116.735 89.1665 116.735 85.5645V8.67605C116.735 7.84482 115.489 7.56775 115.211 8.39897L88.1966 93.0456H75.3126V91.9373C78.9145 91.9373 81.8238 89.1665 81.8238 85.5645V7.70628C81.8238 4.24284 78.9145 1.33355 75.3126 1.33355Z" fill="black"/>
<path d="M178.065 0.225243V5.2126H176.957V5.07407C176.957 2.996 175.295 1.33355 173.078 1.33355H143.154C140.937 1.33355 139.136 3.13454 139.136 5.35114V87.9197C139.136 90.1363 140.937 91.9373 143.154 91.9373V93.0456H129.023V91.9373C130.131 91.9373 131.101 91.5217 131.794 90.6904C132.625 89.9977 133.041 89.028 133.041 87.9197V5.35114C133.041 3.13454 131.24 1.33355 129.023 1.33355V0.225243H178.065Z" fill="black"/>
</svg>
