<svg width="454" height="217" viewBox="0 0 454 217" fill="none" xmlns="http://www.w3.org/2000/svg">
<path d="M28.9707 179.539V180.321H7.95123L24.8646 194.204C27.6997 196.55 29.3617 200.07 29.3617 203.785C29.3617 210.824 23.2026 216.396 16.2612 216.396C12.6439 216.396 9.22218 214.93 6.68029 212.388L7.26688 211.899V211.997C9.22218 213.952 11.8618 214.832 14.4037 214.832C20.3674 214.832 25.0601 209.651 25.0601 203.785C25.0601 200.265 23.4959 197.039 20.8562 194.79L2.28087 179.539H28.9707Z" fill="white"/>
<path d="M40.3534 183.254C44.1663 179.637 48.9567 177.779 53.845 177.779C58.6355 177.779 63.4259 179.539 67.141 183.059L68.1187 184.036C71.4427 187.751 73.1047 192.346 73.1047 197.039C73.1047 207.695 64.5014 216.299 53.845 216.299C49.0545 216.299 44.264 214.539 40.549 211.019L39.5713 210.042C32.63 202.416 32.9233 190.489 40.3534 183.254ZM64.6969 207.402C68.0209 203.98 70.1717 199.776 70.6605 195.475C71.1494 191.271 70.074 187.36 67.5321 184.525L66.6522 183.645C64.1103 181.397 60.8841 180.223 57.3645 180.223C52.6718 180.223 47.588 182.277 43.4819 186.187L64.6969 207.402ZM40.1579 209.553L41.0378 210.433C43.5797 212.779 46.8059 213.855 50.3254 213.855C55.0182 213.855 60.1019 211.802 64.2081 207.891L42.9931 186.676C39.6691 190.098 37.5182 194.302 37.0294 198.603C36.5406 202.905 37.616 206.718 40.1579 209.553Z" fill="white"/>
<path d="M83.8916 216.396L77.2436 208.869V207.304L83.8916 214.832V179.539H88.1933V216.396H83.8916Z" fill="white"/>
<path d="M90.7825 182.081C93.8133 179.246 97.6261 177.779 101.439 177.779C105.252 177.779 109.065 179.148 111.998 181.983L112.78 182.765C115.419 185.698 116.788 189.316 116.788 193.031C116.788 201.438 109.944 208.282 101.537 208.282C99.9724 208.282 98.4082 208.086 96.9417 207.598V215.517H111.9V216.299H96.1596V205.936C96.4529 206.131 96.7462 206.229 96.9417 206.424C98.4082 207.304 99.9724 207.695 101.439 207.695C108.869 207.695 112.389 199.288 112.389 193.031C112.389 189.511 111.509 185.992 109.553 183.156C109.456 183.059 109.358 182.863 109.26 182.765C109.162 182.668 109.065 182.472 108.967 182.374C106.914 179.735 104.176 178.366 101.439 178.366C98.7015 178.366 95.9641 179.735 93.8133 182.472C93.4222 183.059 93.0311 183.645 92.7378 184.232L90.6848 182.277L90.7825 182.081Z" fill="white"/>
<path d="M31.4237 94.0037C27.3176 94.3237 23.6914 94.9903 20.5451 96.0035C17.4522 97.07 14.7592 98.3765 12.4662 99.923C10.1732 101.523 8.25341 103.283 6.70695 105.202C5.16049 107.122 3.93398 109.122 3.02744 111.201C2.12089 113.281 1.45431 115.361 1.0277 117.441C0.654415 119.574 0.467773 121.6 0.467773 123.52V125.92C0.467773 129.012 0.974373 132.265 1.98757 135.678C3.00077 139.144 4.84053 142.317 7.50685 145.197C10.1732 148.13 13.826 150.53 18.4654 152.396C23.1048 154.316 29.0507 155.276 36.3031 155.276H39.8226C44.622 155.276 48.8347 154.822 52.4609 153.916C56.1404 153.063 59.2867 151.889 61.8997 150.396C64.566 148.903 66.779 147.17 68.5388 145.197C70.2986 143.224 71.7117 141.144 72.7783 138.958C73.8448 136.771 74.5913 134.558 75.018 132.319C75.4446 130.079 75.6579 127.946 75.6579 125.92V123.52C75.6579 120.8 75.2579 117.894 74.458 114.801C73.6581 111.761 72.2183 108.855 70.1386 106.082C68.1122 103.363 65.3392 100.936 61.8197 98.8031C58.3535 96.7234 53.9274 95.2836 48.5414 94.4837L57.6602 82.4053H31.4237V94.0037ZM58.5401 125.28C58.5401 127.039 58.2735 128.879 57.7402 130.799C57.207 132.719 56.1938 134.478 54.7006 136.078C53.2075 137.678 51.1278 139.011 48.4615 140.078C45.7951 141.144 42.3289 141.677 38.0628 141.677C33.85 141.677 30.4105 141.171 27.7442 140.158C25.0779 139.144 22.9981 137.838 21.505 136.238C20.0119 134.638 18.972 132.852 18.3854 130.879C17.8522 128.959 17.5855 127.093 17.5855 125.28V124.16C17.5855 122.4 17.8522 120.534 18.3854 118.561C18.972 116.641 20.0119 114.854 21.505 113.201C23.0515 111.548 25.1579 110.188 27.8242 109.122C30.4905 108.055 33.9034 107.522 38.0628 107.522C42.2756 107.522 45.7151 108.055 48.3815 109.122C51.0478 110.188 53.1275 111.521 54.6206 113.121C56.1138 114.774 57.127 116.561 57.6602 118.481C58.2468 120.454 58.5401 122.347 58.5401 124.16V125.28Z" fill="white"/>
<path d="M119.861 93.9237C115.009 93.9237 110.823 94.377 107.303 95.2836C103.784 96.2434 100.824 97.4966 98.4242 99.0431C96.0246 100.643 94.0781 102.483 92.585 104.562C91.1452 106.642 90.0254 108.775 89.2255 110.962C88.4789 113.201 87.9723 115.441 87.7057 117.681C87.439 119.974 87.3057 122.107 87.3057 124.08V154.316H103.784V124.48C103.784 122.773 103.944 120.934 104.263 118.96C104.637 117.041 105.41 115.254 106.583 113.601C107.81 112.001 109.543 110.642 111.782 109.522C114.022 108.455 117.035 107.922 120.821 107.922H121.221C125.007 107.922 128.02 108.455 130.26 109.522C132.5 110.642 134.18 112.001 135.299 113.601C136.473 115.254 137.219 117.041 137.539 118.96C137.912 120.934 138.099 122.773 138.099 124.48V154.316H154.497V124.08C154.497 122.107 154.337 119.974 154.017 117.681C153.75 115.441 153.19 113.201 152.337 110.962C151.537 108.722 150.391 106.562 148.898 104.482C147.404 102.456 145.458 100.643 143.058 99.0431C140.659 97.4966 137.752 96.2434 134.34 95.2836C130.927 94.377 126.874 93.9237 122.181 93.9237H119.861Z" fill="white"/>
<path d="M223.262 154.316V141.358H185.027V131.679H222.062V118.241H185.027V107.922H223.741V94.8036H168.789V154.316H223.262Z" fill="white"/>
<path d="M276.505 154.316V108.802H312.9V94.8036H260.027V154.316H276.505Z" fill="white"/>
<path d="M355.265 142.317L344.787 118.081H366.064L355.265 142.317ZM371.583 105.842H339.428L334.628 94.8036H318.07L344.467 154.316H366.544L394.14 94.8036H376.463L371.583 105.842Z" fill="white"/>
<path d="M57.3403 59.8838V46.6855H19.5053V36.0469H56.2204V22.4487H19.5053V0.371619H3.10743V59.8838H57.3403Z" fill="white"/>
<path d="M96.0808 47.8854L85.6022 23.6486H106.879L96.0808 47.8854ZM112.399 11.4102H80.2429L75.4435 0.371619H58.8857L85.2822 59.8838H107.359L134.956 0.371619H117.278L112.399 11.4102Z" fill="white"/>
<path d="M143.167 59.8838H165.084L184.042 19.5691L203.559 59.8838H224.116V0.371619H208.039V39.3265L189.961 0.371619H177.083L159.005 39.3265V0.371619H143.167V59.8838Z" fill="white"/>
<path d="M255.335 0.371619H238.858V59.8838H255.335V0.371619Z" fill="white"/>
<path d="M286.503 59.8838V14.3698H322.898V0.371619H270.025V59.8838H286.503Z" fill="white"/>
<path d="M350.635 59.8838V14.3698H387.031V0.371619H334.158V59.8838H350.635Z" fill="white"/>
<path d="M452.763 59.8838V46.9255H414.528V37.2468H451.563V23.8085H414.528V13.4899H453.243V0.371619H398.29V59.8838H452.763Z" fill="white"/>
</svg>
